<svg width="22" height="22" viewBox="0 0 22 22" fill="none" xmlns="http://www.w3.org/2000/svg">
  <path d="M2.23779 0.987787C1.98912 0.987852 1.74613 1.06208 1.53987 1.20097C1.3336 1.33986 1.17345 1.53711 1.07988 1.7675C0.986306 1.99789 0.96357 2.25095 1.01457 2.49433C1.06558 2.73771 1.18801 2.96035 1.36621 3.13378L9.23242 11L1.36621 18.8662C1.24624 18.9814 1.15046 19.1193 1.08448 19.272C1.0185 19.4247 0.983644 19.589 0.981953 19.7553C0.980261 19.9216 1.01177 20.0865 1.07463 20.2405C1.13749 20.3945 1.23044 20.5344 1.34804 20.6519C1.46564 20.7695 1.60552 20.8625 1.75949 20.9254C1.91346 20.9882 2.07843 21.0197 2.24473 21.018C2.41103 21.0163 2.57532 20.9815 2.72798 20.9155C2.88064 20.8495 3.01861 20.7537 3.13379 20.6338L11 12.7676L18.8662 20.6338C18.9814 20.7537 19.1194 20.8495 19.272 20.9155C19.4247 20.9815 19.589 21.0164 19.7553 21.018C19.9216 21.0197 20.0865 20.9882 20.2405 20.9254C20.3945 20.8625 20.5344 20.7696 20.652 20.652C20.7696 20.5344 20.8625 20.3945 20.9254 20.2405C20.9882 20.0865 21.0197 19.9216 21.0181 19.7553C21.0164 19.589 20.9815 19.4247 20.9155 19.272C20.8495 19.1193 20.7538 18.9814 20.6338 18.8662L12.7676 11L20.6338 3.13378C20.8144 2.9582 20.9378 2.73215 20.9877 2.48525C21.0377 2.23835 21.0119 1.98212 20.9137 1.75014C20.8155 1.51816 20.6496 1.32125 20.4375 1.18521C20.2255 1.04918 19.9774 0.980362 19.7256 0.987787C19.4008 0.997464 19.0926 1.13319 18.8662 1.36621L11 9.23242L3.13379 1.36621C3.0173 1.24646 2.87799 1.15128 2.7241 1.08628C2.57021 1.02129 2.40485 0.987797 2.23779 0.987787Z" />
</svg>
  