<svg width="300" height="97" viewBox="0 0 300 97" fill="none" xmlns="http://www.w3.org/2000/svg">
  <path d="M125.961 51.799H109.901C109.297 51.799 108.86 51.664 108.59 51.3939C108.32 51.1239 108.185 50.687 108.185 50.0834V19.2024C108.185 18.5987 108.32 18.1619 108.59 17.8918C108.86 17.6218 109.297 17.4867 109.901 17.4867H125.961C129.932 17.4867 132.879 18.281 134.801 19.8695C136.723 21.4581 137.684 23.9044 137.684 27.2085V42.0772C137.684 45.3813 136.723 47.8277 134.801 49.4162C132.879 51.0047 129.932 51.799 125.961 51.799ZM124.674 26.589H119.003V42.792H124.674C125.437 42.792 126 42.6014 126.366 42.2201C126.731 41.8389 126.914 41.2511 126.914 40.4569V28.8765C126.914 28.0822 126.731 27.5024 126.366 27.1371C126 26.7717 125.437 26.589 124.674 26.589ZM164.991 51.799H144.69C144.086 51.799 143.649 51.664 143.379 51.3939C143.109 51.1239 142.974 50.687 142.974 50.0834V44.4123C142.974 43.8087 143.109 43.3718 143.379 43.1018C143.649 42.8317 144.086 42.6967 144.69 42.6967H149.407V26.6843H144.69C144.086 26.6843 143.649 26.5493 143.379 26.2793C143.109 26.0092 142.974 25.5724 142.974 24.9687V19.2024C142.974 18.5987 143.109 18.1619 143.379 17.8918C143.649 17.6218 144.086 17.4867 144.69 17.4867H164.991C165.595 17.4867 166.031 17.6218 166.301 17.8918C166.572 18.1619 166.707 18.5987 166.707 19.2024V24.9687C166.707 25.5724 166.572 26.0092 166.301 26.2793C166.031 26.5493 165.595 26.6843 164.991 26.6843H160.368V42.6967H164.991C165.595 42.6967 166.031 42.8317 166.301 43.1018C166.572 43.3718 166.707 43.8087 166.707 44.4123V50.0834C166.707 50.687 166.572 51.1239 166.301 51.3939C166.031 51.664 165.595 51.799 164.991 51.799ZM188.485 51.799H173.426C172.822 51.799 172.386 51.664 172.115 51.3939C171.845 51.1239 171.71 50.687 171.71 50.0834V44.5076C171.71 43.904 171.845 43.4671 172.115 43.1971C172.386 42.927 172.822 42.792 173.426 42.792H186.245C186.658 42.792 186.968 42.657 187.175 42.3869C187.381 42.1169 187.484 41.7912 187.484 41.41C187.484 40.8699 187.381 40.4728 187.175 40.2186C186.968 39.9644 186.658 39.8215 186.245 39.7897L179.097 38.7889C176.873 38.4712 175.086 37.7405 173.736 36.5968C172.386 35.453 171.71 33.5468 171.71 30.878V25.8742C171.71 23.1737 172.584 21.1007 174.331 19.6551C176.079 18.2095 178.493 17.4867 181.575 17.4867H194.919C195.522 17.4867 195.959 17.6218 196.229 17.8918C196.499 18.1619 196.634 18.5987 196.634 19.2024V24.8734C196.634 25.4771 196.499 25.9139 196.229 26.1839C195.959 26.454 195.522 26.589 194.919 26.589H183.815C183.402 26.589 183.084 26.724 182.862 26.9941C182.639 27.2641 182.528 27.6057 182.528 28.0187C182.528 28.4317 182.639 28.7812 182.862 29.0671C183.084 29.3531 183.402 29.5119 183.815 29.5437L190.916 30.4968C193.14 30.8145 194.935 31.5452 196.301 32.689C197.667 33.8327 198.35 35.739 198.35 38.4077V43.4115C198.35 46.112 197.468 48.1851 195.705 49.6306C193.942 51.0762 191.535 51.799 188.485 51.799ZM221.463 56.088H214.124C213.52 56.088 213.084 55.953 212.814 55.6829C212.544 55.4129 212.409 54.976 212.409 54.3724V51.7513C208.723 51.2112 206.237 50.1072 204.95 48.4392C203.664 46.7713 203.02 44.7459 203.02 42.3631V26.5414C203.02 25.0799 203.235 23.7535 203.664 22.5621C204.093 21.3707 204.855 20.3461 205.951 19.4883C207.047 18.6305 208.564 17.9633 210.502 17.4867C212.44 17.0102 214.887 16.7719 217.841 16.7719C220.796 16.7719 223.234 17.0102 225.156 17.4867C227.079 17.9633 228.588 18.6305 229.684 19.4883C230.78 20.3461 231.542 21.3707 231.971 22.5621C232.4 23.7535 232.615 25.0799 232.615 26.5414V42.3631C232.615 43.5704 232.472 44.6903 232.186 45.7229C231.9 46.7554 231.407 47.6688 230.708 48.4631C230.009 49.2573 229.048 49.9404 227.825 50.5123C226.602 51.0841 225.053 51.4972 223.179 51.7513V54.3724C223.179 54.976 223.044 55.4129 222.774 55.6829C222.504 55.953 222.067 56.088 221.463 56.088ZM213.838 28.3046V41.3147C213.838 41.9501 214.076 42.4823 214.553 42.9112C215.03 43.3401 216.126 43.5545 217.841 43.5545C219.557 43.5545 220.653 43.3401 221.13 42.9112C221.606 42.4823 221.844 41.9501 221.844 41.3147V28.3046C221.844 27.701 221.606 27.1847 221.13 26.7558C220.653 26.3269 219.557 26.1125 217.841 26.1125C216.126 26.1125 215.03 26.3269 214.553 26.7558C214.076 27.1847 213.838 27.701 213.838 28.3046ZM267.88 19.2024V42.792C267.88 44.2535 267.665 45.5799 267.237 46.7713C266.808 47.9627 266.045 48.9793 264.949 49.8213C263.853 50.6632 262.352 51.3224 260.446 51.799C258.539 52.2755 256.109 52.5138 253.154 52.5138C250.2 52.5138 247.769 52.2755 245.863 51.799C243.957 51.3224 242.456 50.6632 241.359 49.8213C240.263 48.9793 239.501 47.9627 239.072 46.7713C238.643 45.5799 238.429 44.2535 238.429 42.792V19.2024C238.429 18.5987 238.564 18.1619 238.834 17.8918C239.104 17.6218 239.541 17.4867 240.144 17.4867H247.626C248.23 17.4867 248.667 17.6218 248.937 17.8918C249.207 18.1619 249.342 18.5987 249.342 19.2024V40.9334C249.342 41.5689 249.58 42.101 250.057 42.5299C250.533 42.9588 251.598 43.1733 253.25 43.1733C254.933 43.1733 256.014 42.9588 256.49 42.5299C256.967 42.101 257.205 41.5689 257.205 40.9334V19.2024C257.205 18.5987 257.34 18.1619 257.61 17.8918C257.88 17.6218 258.317 17.4867 258.921 17.4867H266.164C266.768 17.4867 267.205 17.6218 267.475 17.8918C267.745 18.1619 267.88 18.5987 267.88 19.2024ZM290.135 51.799H275.076C274.472 51.799 274.036 51.664 273.765 51.3939C273.495 51.1239 273.36 50.687 273.36 50.0834V44.5076C273.36 43.904 273.495 43.4671 273.765 43.1971C274.036 42.927 274.472 42.792 275.076 42.792H287.895C288.308 42.792 288.618 42.657 288.825 42.3869C289.031 42.1169 289.134 41.7912 289.134 41.41C289.134 40.8699 289.031 40.4728 288.825 40.2186C288.618 39.9644 288.308 39.8215 287.895 39.7897L280.747 38.7889C278.523 38.4712 276.736 37.7405 275.386 36.5968C274.035 35.453 273.36 33.5468 273.36 30.878V25.8742C273.36 23.1737 274.234 21.1007 275.981 19.6551C277.729 18.2095 280.143 17.4867 283.225 17.4867H296.569C297.172 17.4867 297.609 17.6218 297.879 17.8918C298.149 18.1619 298.284 18.5987 298.284 19.2024V24.8734C298.284 25.4771 298.149 25.9139 297.879 26.1839C297.609 26.454 297.172 26.589 296.569 26.589H285.465C285.052 26.589 284.734 26.724 284.512 26.9941C284.289 27.2641 284.178 27.6057 284.178 28.0187C284.178 28.4317 284.289 28.7812 284.512 29.0671C284.734 29.3531 285.052 29.5119 285.465 29.5437L292.566 30.4968C294.79 30.8145 296.585 31.5452 297.951 32.689C299.317 33.8327 300 35.739 300 38.4077V43.4115C300 46.112 299.118 48.1851 297.355 49.6306C295.592 51.0762 293.185 51.799 290.135 51.799Z" fill="#334747" />
  <path d="M117.287 93.4961H109.9C109.297 93.4961 108.86 93.361 108.59 93.091C108.32 92.8209 108.185 92.3841 108.185 91.7805V60.8994C108.185 60.2958 108.32 59.859 108.59 59.5889C108.86 59.3189 109.297 59.1838 109.9 59.1838H117.287C117.891 59.1838 118.328 59.3189 118.598 59.5889C118.868 59.859 119.003 60.2958 119.003 60.8994V71.2408H126.961V60.8994C126.961 60.2958 127.096 59.859 127.366 59.5889C127.636 59.3189 128.073 59.1838 128.677 59.1838H136.064C136.667 59.1838 137.104 59.3189 137.374 59.5889C137.644 59.859 137.779 60.2958 137.779 60.8994V91.7805C137.779 92.3841 137.644 92.8209 137.374 93.091C137.104 93.361 136.667 93.4961 136.064 93.4961H128.677C128.073 93.4961 127.636 93.361 127.366 93.091C127.096 92.8209 126.961 92.3841 126.961 91.7805V81.2009H119.003V91.7805C119.003 92.3841 118.868 92.8209 118.598 93.091C118.328 93.361 117.891 93.4961 117.287 93.4961ZM160.273 93.4961H145.213C144.61 93.4961 144.173 93.361 143.903 93.091C143.633 92.8209 143.498 92.3841 143.498 91.7805V86.2047C143.498 85.6011 143.633 85.1642 143.903 84.8942C144.173 84.6241 144.61 84.4891 145.213 84.4891H158.033C158.446 84.4891 158.756 84.3541 158.962 84.084C159.169 83.814 159.272 83.4883 159.272 83.1071C159.272 82.567 159.169 82.1699 158.962 81.9157C158.756 81.6615 158.446 81.5186 158.033 81.4868L150.885 80.486C148.661 80.1683 146.873 79.4376 145.523 78.2938C144.173 77.1501 143.498 75.2439 143.498 72.5751V67.5713C143.498 64.8708 144.372 62.7977 146.119 61.3522C147.866 59.9066 150.281 59.1838 153.363 59.1838H166.706C167.31 59.1838 167.747 59.3189 168.017 59.5889C168.287 59.859 168.422 60.2958 168.422 60.8994V66.5705C168.422 67.1741 168.287 67.611 168.017 67.881C167.747 68.1511 167.31 68.2861 166.706 68.2861H155.602C155.189 68.2861 154.872 68.4211 154.649 68.6912C154.427 68.9612 154.316 69.3028 154.316 69.7158C154.316 70.1288 154.427 70.4783 154.649 70.7642C154.872 71.0501 155.189 71.209 155.602 71.2408L162.703 72.1939C164.927 72.5116 166.722 73.2423 168.088 74.3861C169.454 75.5298 170.138 77.436 170.138 80.1048V85.1086C170.138 87.8091 169.256 89.8822 167.493 91.3277C165.729 92.7733 163.323 93.4961 160.273 93.4961ZM199.16 93.4961H177.048C176.444 93.4961 176.007 93.361 175.737 93.091C175.467 92.8209 175.332 92.3841 175.332 91.7805V60.8994C175.332 60.2958 175.467 59.859 175.737 59.5889C176.007 59.3189 176.444 59.1838 177.048 59.1838H199.16C199.764 59.1838 200.2 59.3189 200.47 59.5889C200.741 59.859 200.876 60.2958 200.876 60.8994V66.4752C200.876 67.0788 200.741 67.5157 200.47 67.7857C200.2 68.0558 199.764 68.1908 199.16 68.1908H186.007V71.8603H195.3C195.903 71.8603 196.34 71.9953 196.61 72.2654C196.88 72.5354 197.015 72.9723 197.015 73.5759V78.6751C197.015 79.2787 196.88 79.7156 196.61 79.9856C196.34 80.2557 195.903 80.3907 195.3 80.3907H186.007V84.4891H199.16C199.764 84.4891 200.2 84.6241 200.47 84.8942C200.741 85.1642 200.876 85.6011 200.876 86.2047V91.7805C200.876 92.3841 200.741 92.8209 200.47 93.091C200.2 93.361 199.764 93.4961 199.16 93.4961Z" fill="#D41717" />
  <path d="M85.9577 0H41.0112C38.044 0.00259373 35.1989 1.1818 33.0998 3.27903C31.0008 5.37626 29.8191 8.22032 29.8139 11.1875V30.54H10.3632C7.61555 30.5426 4.98114 31.6353 3.03822 33.5782C1.09531 35.5211 0.00264009 38.1555 4.17968e-05 40.9032V72.8761C-0.00382974 74.2399 0.261294 75.5911 0.780239 76.8524C1.29918 78.1137 2.06176 79.2602 3.02433 80.2264C3.9869 81.1927 5.13056 81.9596 6.38986 82.4833C7.64916 83.007 8.99938 83.2772 10.3632 83.2785H14.9364V94.2305C14.9335 94.7184 15.0762 95.1961 15.3462 95.6025C15.6162 96.0089 16.0013 96.3256 16.4522 96.512C16.903 96.6985 17.3993 96.7463 17.8775 96.6493C18.3556 96.5523 18.794 96.3149 19.1366 95.9675L31.8944 83.2785H50.1379C51.5018 83.2772 52.852 83.007 54.1113 82.4833C55.3706 81.9596 56.5142 81.1927 57.4768 80.2264C58.4394 79.2602 59.202 78.1137 59.7209 76.8524C60.2398 75.5911 60.505 74.2399 60.5011 72.8761V57.7532H62.3166L76.4679 71.8456C76.811 72.1896 77.2486 72.424 77.7251 72.519C78.2016 72.6141 78.6955 72.5655 79.1444 72.3794C79.5932 72.1934 79.9767 71.8782 80.2462 71.4739C80.5158 71.0697 80.6592 70.5945 80.6583 70.1086V57.7532H85.9675C88.9347 57.748 91.7788 56.5663 93.876 54.4673C95.9732 52.3682 97.1524 49.5231 97.155 46.5559V11.2268C97.1576 9.75423 96.8699 8.29558 96.3085 6.93424C95.7471 5.5729 94.9228 4.33554 93.8829 3.29291C92.843 2.25028 91.6079 1.4228 90.248 0.857787C88.8881 0.29277 87.4302 0.00128721 85.9577 0ZM55.5943 72.8761C55.5917 74.3224 55.016 75.7087 53.9933 76.7314C52.9706 77.7541 51.5842 78.3298 50.1379 78.3324H30.8247C30.5023 78.3319 30.1829 78.3948 29.8849 78.5178C29.5868 78.6407 29.3159 78.8211 29.0877 79.0488L19.8432 88.2737V80.8251C19.8432 80.1744 19.5847 79.5504 19.1246 79.0903C18.6645 78.6302 18.0405 78.3717 17.3898 78.3717H10.3632C9.64375 78.3704 8.93159 78.2271 8.26761 77.95C7.60363 77.6729 7.00089 77.2674 6.49396 76.7568C5.98703 76.2462 5.58589 75.6406 5.31354 74.9746C5.04118 74.3087 4.90298 73.5955 4.90686 72.8761V40.9032C4.90945 39.4569 5.48515 38.0706 6.50786 37.0478C7.53057 36.0251 8.91691 35.4494 10.3632 35.4468H29.8237V46.5559C29.8263 49.5231 31.0055 52.3682 33.1027 54.4673C35.1999 56.5663 38.044 57.748 41.0112 57.7532H55.5943V72.8761ZM92.2482 46.5559C92.2482 48.2242 91.5854 49.8243 90.4057 51.004C89.226 52.1837 87.626 52.8464 85.9577 52.8464H78.1951C77.5444 52.8464 76.9204 53.1049 76.4603 53.565C76.0002 54.0251 75.7417 54.6491 75.7417 55.2998V64.191L65.0939 53.5628C64.8656 53.3351 64.5947 53.1547 64.2967 53.0317C63.9986 52.9088 63.6793 52.8458 63.3569 52.8464H41.0112C39.3429 52.8464 37.7428 52.1837 36.5631 51.004C35.3834 49.8243 34.7207 48.2242 34.7207 46.5559V11.2268C34.7233 9.56014 35.3872 7.96264 36.5666 6.78506C37.746 5.60747 39.3446 4.94607 41.0112 4.94607H85.9577C87.6243 4.94607 89.2229 5.60747 90.4023 6.78506C91.5817 7.96264 92.2456 9.56014 92.2482 11.2268V46.5559Z" fill="#334747" />
  <path d="M63.7475 21.9791C59.8908 13.647 46.4538 18.0814 49.87 28.9015C51.7032 34.2821 55.4294 36.6674 63.7468 42.6668C72.0652 36.6674 75.7901 34.2814 77.624 28.9015C81.0386 18.0814 67.6032 13.647 63.7475 21.9791Z" fill="#D41717" />
</svg>
  