<svg width="301" height="273" viewBox="0 0 301 273" fill="none" xmlns="http://www.w3.org/2000/svg">
  <path d="M162.29 144.184C156.785 145.901 150.887 146.577 145.528 148.765C127.3 156.21 122.361 181.033 128.68 198.087C135.872 217.502 163.517 227.354 182.212 229.28C199.108 231.021 230.768 235.748 245.723 225.25C287.835 195.691 288.828 98.9393 225.704 95.9706C218.01 95.6092 210.013 96.6658 203.419 100.648C187.499 110.262 183.858 133.854 167.247 142.22C165.651 143.023 163.989 143.654 162.29 144.184Z" fill="#D4D8F0" />
  <path d="M287.466 240.554H109.184" stroke="#171717" stroke-width="0.666667" stroke-miterlimit="10" />
  <path d="M297.763 233.788H75.3516" stroke="#171717" stroke-width="0.666667" stroke-miterlimit="10" />
  <path d="M301 240.259H293.939" stroke="#171717" stroke-width="0.666667" stroke-miterlimit="10" />
  <path d="M182.767 177.456C186.146 181.241 190.153 184.755 194.446 187.468C196.958 189.055 199.649 190.321 202.264 191.717C202.323 191.791 202.389 191.859 202.447 191.936C203.285 193.022 204.116 194.323 203.85 195.671C203.533 197.275 201.808 198.182 200.209 198.527C195.972 199.443 189.67 198.936 185.481 197.893C176.732 195.717 168.156 191.915 162.071 185.058C155.891 178.092 153.151 168.951 152.245 159.863C151.295 150.326 150.69 141.675 154.423 132.507C155.516 129.822 156.922 127.185 159.092 125.263C161.262 123.341 164.316 122.232 167.118 122.968C169.666 123.636 171.665 125.732 172.756 128.129C173.845 130.526 174.134 133.208 174.198 135.84C174.366 142.801 172.581 149.492 173.152 156.486C173.802 164.448 177.52 171.579 182.767 177.456Z" fill="white" />
  <path d="M182.767 177.456C186.146 181.241 190.153 184.755 194.446 187.468C196.958 189.055 199.649 190.321 202.264 191.717C202.323 191.791 202.389 191.859 202.447 191.936C203.285 193.022 204.116 194.323 203.85 195.671C203.533 197.275 201.808 198.182 200.209 198.527C195.972 199.443 189.67 198.936 185.481 197.893C176.732 195.717 168.156 191.915 162.071 185.058C155.891 178.092 153.151 168.951 152.245 159.863C151.295 150.326 150.69 141.675 154.423 132.506C155.516 129.822 156.922 127.185 159.092 125.263C161.262 123.341 164.316 122.232 167.118 122.968C169.666 123.636 171.665 125.732 172.756 128.129C173.845 130.526 174.134 133.208 174.198 135.84C174.366 142.801 172.581 149.492 173.152 156.486C173.802 164.448 177.52 171.579 182.767 177.456V177.456Z" stroke="#040606" stroke-width="0.666667" stroke-miterlimit="10" />
  <path d="M177.587 108.597C177.503 108.142 177.431 107.688 177.364 107.233C176.703 102.693 176.084 97.0158 181.024 95.5817C182.904 95.0359 185.443 94.4434 187.809 94.1605C189.308 93.9813 190.461 92.7858 190.587 91.2819C190.794 88.8018 191.067 86.328 191.403 83.8628C183.207 83.6656 180.428 75.7028 179.385 68.7829C178.164 60.6908 178.418 50.5892 185.547 45.169C190.091 41.7139 196.455 40.8872 201.794 42.9062C207.133 44.9263 211.317 49.6671 212.829 55.1721C213.947 59.243 213.924 64.2509 213.684 68.4523C213.41 73.21 212.531 77.9116 212.266 82.6704C212.087 85.8712 212.36 89.5998 214.095 92.3937C214.884 93.6644 215.863 94.7476 217.208 95.4397C218.183 95.941 220.732 95.6718 221.34 96.3385C224.807 100.151 228.051 104.189 231.82 107.689C222.932 111.416 213.638 114.086 204.142 115.714C197.478 116.858 184.024 120.8 179.427 113.712C178.433 112.18 177.921 110.403 177.587 108.597Z" fill="white" />
  <path d="M177.587 108.597C177.503 108.142 177.431 107.688 177.364 107.233C176.703 102.693 176.084 97.0158 181.024 95.5817C182.904 95.0359 185.443 94.4434 187.809 94.1605C189.308 93.9813 190.461 92.7858 190.587 91.2819C190.794 88.8018 191.067 86.328 191.403 83.8628C183.207 83.6656 180.428 75.7028 179.385 68.7829C178.164 60.6908 178.418 50.5892 185.547 45.169C190.091 41.7139 196.455 40.8872 201.794 42.9062C207.133 44.9263 211.317 49.6671 212.829 55.1721C213.947 59.243 213.924 64.2509 213.684 68.4523C213.41 73.21 212.531 77.9116 212.266 82.6704C212.087 85.8712 212.36 89.5998 214.095 92.3937C214.884 93.6644 215.863 94.7476 217.208 95.4397C218.183 95.941 220.732 95.6718 221.34 96.3385C224.807 100.151 228.051 104.189 231.82 107.689C222.932 111.416 213.638 114.086 204.142 115.714C197.478 116.858 184.024 120.8 179.427 113.712C178.433 112.18 177.921 110.403 177.587 108.597Z" stroke="#040606" stroke-width="0.666667" stroke-miterlimit="10" />
  <path d="M256.324 131.024C255.375 119.28 250.117 107.263 239.423 101.391C232.886 97.802 225.793 96.7506 218.651 95.0686C218.443 95.0188 218.219 94.9701 218.017 95.0421C217.737 95.1396 217.582 95.4279 217.446 95.6908C214.036 102.285 206.659 106.617 199.239 106.384C191.527 106.142 185.635 101.429 181.582 95.2594C176.325 97.0124 171.093 99.0262 166.496 102.122C151.498 112.225 150.541 133.518 148.604 149.837C150.63 149.901 172.604 153.558 172.473 152.908C173.131 156.166 172.547 155.658 172.68 158.91C172.922 164.91 173.366 170.9 173.903 176.881C174.511 183.686 175.557 190.372 177.075 196.992C192.501 202.129 210.1 200.877 226.642 199.385C231.359 198.961 236.252 198.481 240.331 196.074C251.806 189.304 252.295 169.3 253.932 157.656C255.2 148.649 257.068 140.221 256.324 131.024Z" fill="#F2596D" />
  <path d="M256.324 131.024C255.375 119.28 250.117 107.263 239.423 101.391C232.886 97.802 225.793 96.7506 218.651 95.0686C218.443 95.0188 218.219 94.9701 218.017 95.0421C217.737 95.1396 217.582 95.4279 217.446 95.6908C214.036 102.285 206.659 106.617 199.239 106.384C191.527 106.142 185.635 101.429 181.582 95.2594C176.325 97.0124 171.093 99.0262 166.496 102.122C151.498 112.225 150.541 133.518 148.604 149.837C150.63 149.901 172.604 153.558 172.473 152.908C173.131 156.166 172.547 155.658 172.68 158.91C172.922 164.91 173.366 170.9 173.903 176.881C174.511 183.686 175.557 190.372 177.075 196.992C192.501 202.129 210.1 200.877 226.642 199.385C231.359 198.961 236.252 198.481 240.331 196.074C251.806 189.304 252.295 169.3 253.932 157.656C255.2 148.649 257.069 140.221 256.324 131.024V131.024Z" stroke="#040606" stroke-width="0.666667" stroke-miterlimit="10" />
  <path d="M137.628 247.717C139.628 245.39 142.306 243.588 144.899 241.879C153.568 236.164 164.621 229.359 175.539 229.989C182.008 230.363 190.996 234.753 192.335 241.603C192.486 242.376 192.551 243.203 192.241 243.927C191.472 245.728 189.04 245.889 187.082 245.907C171.322 246.045 157.026 254.932 141.572 258.031C139.893 258.368 138.013 258.6 136.586 257.656C134.412 256.219 134.55 252.905 135.711 250.573C136.228 249.533 136.881 248.588 137.628 247.717Z" fill="#040606" />
  <path d="M101.775 179.141C105.152 175.402 109.96 172.982 114.89 172.059C121.809 170.763 128.956 172.02 135.743 173.887C150.121 177.847 163.605 184.522 178.061 188.236C184.469 189.882 188.649 189.271 194.913 188.767C202.854 188.125 211.008 188.907 219 188.435C226.469 187.993 234.553 187.414 241.534 189.472C242.455 188.866 243.375 188.26 244.291 187.659C252.101 182.535 259.882 177.431 269.676 179.299C277.377 180.766 284.801 184.669 289.572 191.009C294.64 197.743 293.118 206.536 288.578 213.249C284.818 218.808 279.263 222.9 273.508 226.35C253.659 238.259 231.977 245.556 208.552 243.929C205.417 243.712 201.721 243.677 199.463 246.196C198.614 247.142 198.121 252.33 196.236 252.106C193.917 251.831 189.45 251.182 187.257 250.39C175.42 246.114 163.585 241.839 151.748 237.564C141.349 233.807 130.874 230.014 121.399 224.314C113.205 219.383 105.783 212.715 101.432 204.076C98.2948 197.849 95.7204 189.642 98.9954 183.171C99.7436 181.695 100.685 180.348 101.775 179.141Z" fill="#526ABC" />
  <path d="M101.775 179.141C105.152 175.402 109.96 172.982 114.89 172.059C121.809 170.763 128.956 172.02 135.743 173.887C150.121 177.847 163.605 184.522 178.061 188.236C184.469 189.882 188.649 189.271 194.913 188.767C202.854 188.125 211.008 188.907 219 188.435C226.469 187.993 234.553 187.414 241.534 189.472C242.455 188.866 243.375 188.26 244.291 187.659C252.101 182.535 259.881 177.431 269.676 179.299C277.377 180.766 284.801 184.669 289.572 191.009C294.64 197.743 293.118 206.536 288.578 213.249C284.818 218.808 279.263 222.9 273.508 226.35C253.659 238.259 231.977 245.556 208.552 243.929C205.417 243.712 201.721 243.677 199.463 246.196C198.614 247.142 198.121 252.33 196.236 252.106C193.917 251.831 189.45 251.182 187.257 250.39C175.42 246.114 163.585 241.839 151.748 237.564C141.349 233.807 130.874 230.014 121.399 224.314C113.205 219.383 105.783 212.715 101.432 204.076C98.2948 197.849 95.7204 189.642 98.9954 183.171C99.7436 181.695 100.685 180.348 101.775 179.141V179.141Z" stroke="#040606" stroke-width="0.666667" stroke-miterlimit="10" />
  <path d="M248.687 197.041C242.034 200.367 235.067 202.494 228.693 206.432C222.32 210.372 216.293 214.96 209.373 217.937C204.885 219.868 199.765 220.7 195.46 222.839" stroke="#040606" stroke-width="0.666667" stroke-miterlimit="10" />
  <path d="M199.746 245.298C200.808 242.879 202.12 240.508 203.232 238.204C203.972 236.673 204.458 235.089 205.268 233.581C205.385 233.366 205.515 233.136 205.737 233.033C205.928 232.945 206.149 232.968 206.357 232.993C209.504 233.367 212.649 233.74 215.797 234.114C218.101 234.386 221.417 234.15 223.142 235.923C224.105 236.912 224.682 238.204 225.326 239.426C229.857 248.016 244.173 254.838 242.771 265.912C240.47 284.098 217.82 259.691 212.351 255.046C208.747 251.984 203.001 249.754 198.381 249.001C198.734 247.757 199.209 246.522 199.746 245.298Z" fill="#040606" />
  <path d="M187.447 200.169C186.589 199.735 185.936 198.966 185.427 197.505C184.573 195.061 185.075 192.166 186.449 190.011C188.382 186.983 191.765 185.144 195.228 184.187C198.691 183.232 202.311 183.039 205.872 182.557C211.903 181.74 217.82 180.075 223.394 177.626C226.059 176.455 228.742 175.025 230.456 172.673C232.345 170.08 232.793 166.74 233.182 163.554C233.762 158.81 234.342 154.066 234.921 149.322C235.425 145.201 235.964 140.964 237.97 137.328C239.974 133.692 243.819 130.752 247.958 131.084C251.488 131.366 254.5 133.962 256.237 137.048C259.065 142.073 260.449 149.695 261.314 155.381C262.287 161.773 261.652 168.308 260.488 174.629C258.972 182.847 254.407 189.848 247.038 193.96C230.533 203.169 209.467 202.568 191.233 200.868C189.648 200.722 188.416 200.659 187.447 200.169Z" fill="white" />
  <path d="M187.447 200.169C186.589 199.735 185.936 198.966 185.427 197.505C184.573 195.061 185.075 192.166 186.449 190.011C188.382 186.983 191.765 185.144 195.228 184.187C198.691 183.232 202.311 183.039 205.872 182.557C211.903 181.74 217.82 180.075 223.394 177.626C226.059 176.455 228.742 175.025 230.456 172.673C232.345 170.08 232.793 166.74 233.182 163.554C233.762 158.81 234.342 154.066 234.921 149.322C235.425 145.201 235.964 140.964 237.97 137.328C239.974 133.693 243.819 130.752 247.958 131.084C251.488 131.366 254.5 133.962 256.237 137.048C259.065 142.073 260.449 149.695 261.314 155.381C262.287 161.773 261.652 168.308 260.488 174.629C258.972 182.847 254.407 189.848 247.038 193.96C230.533 203.169 209.467 202.568 191.233 200.868C189.648 200.722 188.416 200.659 187.447 200.169V200.169Z" stroke="#040606" stroke-width="0.666667" stroke-miterlimit="10" />
  <path d="M193.477 38.1983C192.489 38.3171 191.499 38.4432 190.508 38.5343C186.732 38.8809 182.672 38.7844 179.52 40.8893C176.01 43.2338 174.274 49.1489 176.444 52.9793C178.767 57.0789 189.056 54.8425 192.864 54.7493C195.973 54.673 200.73 54.1822 200.846 58.4185C200.866 59.1732 200.887 59.9267 200.907 60.6814C200.919 61.1032 200.933 61.5367 201.097 61.9256C201.388 62.6188 202.089 63.0322 202.718 63.4444C204.488 64.6061 206.067 65.9977 206.768 68.0082C207.513 70.1449 207.851 72.4851 209.177 74.3855C209.515 74.8709 209.903 75.3192 210.291 75.7675C211.003 76.5921 211.715 77.4157 212.427 78.2392C212.866 77.9096 213.081 77.369 213.27 76.855C217.364 65.8482 221.332 52.6264 211.545 43.2847C208.001 39.9005 203.152 37.9207 198.252 37.8549C196.655 37.8327 195.066 38.0065 193.477 38.1983Z" fill="#040606" />
  <path d="M134.021 185.508C147.346 191.535 158.07 202.004 170.203 210.17C181.533 217.795 194.077 223.398 206.55 228.961C205.899 230.392 205.634 231.801 204.983 233.232" stroke="#040606" stroke-width="0.666667" stroke-miterlimit="10" />
  <path d="M190.95 71.7653C190.153 74.3641 186.976 75.9423 184.423 75.0085" stroke="#171717" stroke-width="0.666667" stroke-miterlimit="10" />
  <path d="M204.394 71.0098C209.305 72.2381 212.364 67.0618 210.872 63.6871C208.795 58.9887 202.205 59.7688 200.999 64.7078" fill="white" />
  <path d="M204.394 71.0098C209.305 72.2381 212.364 67.0618 210.872 63.6871C208.795 58.9887 202.205 59.7688 200.999 64.7078" stroke="#040606" stroke-width="0.666667" stroke-miterlimit="10" />
  <path d="M206.908 63.2895C205.984 63.0351 204.918 63.1878 204.145 63.6848C203.371 64.183 202.913 65.0107 202.957 65.8311" stroke="#171717" stroke-width="0.666667" stroke-miterlimit="10" />
  <path d="M227.602 123.355C229.682 131.641 229.22 156.906 229.279 161.5C232.682 161.448 236.084 161.316 239.481 161.087C247.481 160.549 255.428 159.54 263.332 158.247C262.911 153.757 262.408 149.277 261.786 144.813C259.799 130.553 256.081 116.74 245.952 106.508" fill="#F2596D" />
  <path d="M227.602 123.355C229.682 131.641 229.22 156.906 229.279 161.5C232.682 161.448 236.084 161.316 239.481 161.087C247.481 160.549 255.428 159.54 263.332 158.247C262.911 153.757 262.408 149.277 261.786 144.813C259.799 130.553 256.081 116.74 245.952 106.508" stroke="#040606" stroke-width="0.666667" stroke-miterlimit="10" />
  <path d="M229.168 207.492H153.623C152.517 207.492 151.62 206.595 151.62 205.488C151.62 204.382 152.517 203.485 153.623 203.485H229.168C230.275 203.485 231.172 204.382 231.172 205.488C231.172 206.595 230.275 207.492 229.168 207.492Z" fill="#040606" />
  <path d="M217.962 204.774H151.845L138.112 170.861C137.665 169.757 138.477 168.55 139.669 168.55H202.162C202.846 168.55 203.461 168.966 203.719 169.601L217.962 204.774Z" fill="#040606" />
  <path d="M171.077 186.685C171.781 188.522 174.151 190.011 176.373 190.011C178.595 190.011 179.827 188.522 179.123 186.685C178.42 184.847 176.05 183.358 173.827 183.358C171.606 183.358 170.374 184.847 171.077 186.685Z" stroke="white" stroke-width="0.666667" stroke-miterlimit="10" />
  <path d="M172.473 152.908C171.914 144.968 171.949 133.399 172.428 125.455L172.473 152.908Z" fill="#F2596D" />
  <path d="M172.473 152.908C171.914 144.968 171.949 133.399 172.428 125.455" stroke="#040606" stroke-width="0.666667" stroke-miterlimit="10" />
  <path d="M191.371 83.6666L191.198 84.0863C191.369 85.2585 191.287 86.4286 191.101 87.5966C191.39 87.5235 191.68 87.4535 191.965 87.3655C194.563 86.5611 196.714 84.4414 197.804 81.9486C195.842 83.0339 193.612 83.6295 191.371 83.6666Z" fill="#040606" />
  <path d="M210.876 86.1784C210.876 87.2828 210.876 87.498 210.876 88.6024" stroke="#171717" stroke-width="0.666667" stroke-miterlimit="10" />
  <path d="M210.967 90.0215C211.105 91.6219 211.601 93.2371 212.798 94.138" stroke="#171717" stroke-width="0.666667" stroke-miterlimit="10" />
  <path d="M256.626 133.743C258.172 139.096 258.996 144.656 259.068 150.226" stroke="#171717" stroke-width="0.666667" stroke-miterlimit="10" />
  <path d="M259.325 152.973C259.325 153.522 259.325 154.07 259.325 154.62" stroke="#171717" stroke-width="0.666667" stroke-miterlimit="10" />
  <path d="M154.983 124.14C153.602 128.606 152.695 133.219 152.281 137.876" stroke="#171717" stroke-width="0.666667" stroke-miterlimit="10" />
  <path d="M287.522 194.817C289.118 197.571 289.337 200.952 288.773 204.084C288.21 207.216 286.924 210.164 285.648 213.08" stroke="#171717" stroke-width="0.666667" stroke-miterlimit="10" />
  <path d="M282.761 215.635C280.959 218.027 278.787 220.138 276.345 221.872" stroke="#171717" stroke-width="0.666667" stroke-miterlimit="10" />
  <path d="M283.744 211.158C282.454 213.111 280.883 214.877 279.096 216.389" stroke="#171717" stroke-width="0.666667" stroke-miterlimit="10" />
  <path d="M273.352 223.28C272.07 224.245 270.672 225.057 269.199 225.694" stroke="#171717" stroke-width="0.666667" stroke-miterlimit="10" />
  <path d="M101.664 199.397C102.379 201.497 103.342 203.514 104.525 205.391" stroke="#171717" stroke-width="0.666667" stroke-miterlimit="10" />
  <path d="M106.408 208.253C107.275 209.472 108.266 210.602 109.362 211.619" stroke="#171717" stroke-width="0.666667" stroke-miterlimit="10" />
  <path d="M105.419 204.398C105.915 205.248 106.5 206.045 107.164 206.773" stroke="#171717" stroke-width="0.666667" stroke-miterlimit="10" />
  <path d="M254.185 184.311C252.725 186.642 250.705 188.617 248.342 190.023" stroke="#171717" stroke-width="0.666667" stroke-miterlimit="10" />
  <path d="M36.9411 140.688C38.7954 138.14 40.9166 135.718 42.8023 133.683C46.8608 129.302 51.5952 125.752 56.5501 122.768C59.2157 132.6 56.6294 143.47 51.7073 152.145C48.564 157.687 44.5294 162.506 40.2414 166.956C37.8413 169.447 35.3373 171.724 32.8474 174.153C32.6351 174.36 32.342 174.579 32.0938 174.429C31.9024 174.312 31.8523 174.035 31.8231 173.793C30.6903 164.523 29.6578 154.551 33.545 146.264C34.4176 144.405 35.6102 142.513 36.9411 140.688Z" fill="#86D393" />
  <path d="M36.9411 140.688C38.7954 138.14 40.9166 135.718 42.8023 133.683C46.8608 129.302 51.5952 125.752 56.5501 122.768C59.2157 132.6 56.6294 143.47 51.7073 152.145C48.564 157.687 44.5294 162.506 40.2414 166.956C37.8413 169.447 35.3373 171.724 32.8474 174.153C32.6351 174.36 32.342 174.579 32.0938 174.429C31.9024 174.312 31.8523 174.035 31.8231 173.793C30.6903 164.523 29.6578 154.551 33.545 146.264C34.4176 144.405 35.6102 142.513 36.9411 140.688V140.688Z" stroke="#040606" stroke-width="0.666667" stroke-miterlimit="10" />
  <path d="M1 151.746C1.04823 158.031 1.1861 164.408 2.80382 170.427C4.4216 176.447 7.7173 182.161 12.694 185.087C15.3916 186.673 18.4273 187.367 21.2947 188.522C24.1756 189.683 26.7252 191.422 28.4651 194.278C29.3713 185.715 25.5431 176.496 21.4375 169.506C16.6179 161.299 9.37643 154.81 1 151.746Z" fill="#86D393" />
  <path d="M1 151.746C1.04823 158.031 1.1861 164.408 2.80382 170.427C4.4216 176.447 7.7173 182.161 12.694 185.087C15.3916 186.673 18.4273 187.367 21.2947 188.522C24.1756 189.683 26.7252 191.422 28.4651 194.278C29.3713 185.715 25.5431 176.496 21.4375 169.506C16.6179 161.299 9.37643 154.81 1 151.746V151.746Z" stroke="#040606" stroke-width="0.666667" stroke-miterlimit="10" />
  <path d="M47.674 170.434C54.7929 165.132 63.3106 162.809 71.6579 160.72C69.2159 168.334 66.6588 176.166 61.7763 182.135C57.2184 187.709 50.8899 191.248 44.293 192.875C43.0466 193.183 35.2578 196.528 34.7643 196.222C33.5493 195.469 35.4582 190.614 35.7326 189.456C37.6161 181.486 41.4599 175.063 47.674 170.434Z" fill="#86D393" />
  <path d="M47.674 170.434C54.7929 165.132 63.3106 162.809 71.6579 160.72C69.2159 168.334 66.6588 176.166 61.7763 182.135C57.2184 187.709 50.8899 191.248 44.293 192.875C43.0466 193.183 35.2578 196.528 34.7643 196.222C33.5493 195.469 35.4582 190.614 35.7326 189.456C37.6161 181.486 41.4599 175.063 47.674 170.434V170.434Z" stroke="#040606" stroke-width="0.666667" stroke-miterlimit="10" />
  <path d="M32.1536 209.809L31.7812 209.777C32.2358 204.615 32.7503 198.764 35.5616 194.113C37.2716 191.284 39.6844 189.145 42.0172 187.076L55.3194 175.28L55.5677 175.561L42.2654 187.357C39.9528 189.406 37.5624 191.526 35.8816 194.306C33.1151 198.883 32.6045 204.688 32.1536 209.809Z" fill="#130A0A" />
  <path d="M29.7527 219.187C29.0761 215.526 29.2234 211.726 29.3669 208.05C29.4649 205.514 29.5666 202.894 29.3983 200.339C28.6566 189.095 22.8545 179.237 17.4756 170.88L17.7896 170.676C23.194 179.074 29.023 188.981 29.7707 200.314C29.9412 202.888 29.8395 205.52 29.74 208.064C29.598 211.719 29.4514 215.499 30.1206 219.12L29.7527 219.187Z" fill="#130A0A" />
  <path d="M30.9034 214.638L30.5295 214.632L30.8301 194.181C30.9094 188.776 30.9931 183.189 31.8283 177.767C33.4291 167.374 37.6984 157.829 41.8287 148.599L42.1704 148.752C38.0506 157.96 33.791 167.481 32.1976 177.823C31.3662 183.22 31.2832 188.795 31.204 194.187L30.9034 214.638Z" fill="#130A0A" />
  <path d="M17.945 238.11C17.945 238.11 45.1424 238.272 45.1551 238.11L46.8823 209.675H15.7871C15.7871 209.675 17.9397 238.057 17.945 238.11Z" fill="#F2596D" />
  <path d="M17.945 238.11C17.945 238.11 45.1424 238.272 45.1551 238.11L46.8823 209.675H15.7871C15.7871 209.675 17.9397 238.057 17.945 238.11V238.11Z" stroke="#040606" stroke-width="0.666667" stroke-miterlimit="10" />
  <path d="M17.7872 218.455C20.1312 217.318 22.0386 216.153 25.0264 216.485C26.3236 216.63 27.7966 216.963 28.8112 216.142C29.203 215.826 29.4602 215.377 29.7399 214.958C30.9593 213.135 32.8002 211.75 34.8623 211.016C36.1409 210.56 38.9305 209.675 40.242 209.675H15.7871L16.6223 218.992C17.026 218.818 17.4119 218.637 17.7872 218.455Z" fill="#130A0A" />
  <path d="M48.1566 204.512L15.652 204.556C15.3731 204.556 15.104 204.586 14.8423 204.633V212.149C15.1062 212.197 15.3754 212.228 15.652 212.228L47.4792 212.162L48.1566 204.512Z" fill="#F2596D" />
  <path d="M48.1566 204.512L15.652 204.556C15.3731 204.556 15.104 204.586 14.8423 204.633V212.149C15.1062 212.197 15.3754 212.228 15.652 212.228L47.4792 212.162L48.1566 204.512Z" stroke="#040606" stroke-width="0.666667" stroke-miterlimit="10" />
  <path d="M2.55249 238.11H51.6206" stroke="#171717" stroke-width="0.666667" stroke-miterlimit="10" />
  <path d="M53.8037 238.11H61.2919" stroke="#171717" stroke-width="0.666667" stroke-miterlimit="10" />
  <path d="M67.2309 169.947C66.4675 172.133 65.5613 174.269 64.5198 176.337" stroke="#171717" stroke-width="0.666667" stroke-miterlimit="10" />
  <path d="M63.6479 177.498C63.1813 178.243 62.6639 178.956 62.0986 179.629" stroke="#171717" stroke-width="0.666667" stroke-miterlimit="10" />
  <path d="M54.9522 135.287C54.2673 138.824 53.148 142.275 51.6279 145.54" stroke="#171717" stroke-width="0.666667" stroke-miterlimit="10" />
  <path d="M51.0523 147.284C50.3824 148.483 49.7117 149.682 49.0417 150.88" stroke="#171717" stroke-width="0.666667" stroke-miterlimit="10" />
  <path d="M53.201 145.649C52.7808 146.455 52.3606 147.262 51.9404 148.069" stroke="#171717" stroke-width="0.666667" stroke-miterlimit="10" />
  <path d="M7.45801 177.372C8.82405 180.32 11.5292 182.615 14.6606 183.482" stroke="#171717" stroke-width="0.666667" stroke-miterlimit="10" />
  <path d="M44.8642 216.228C44.7453 219.717 44.5464 223.203 44.269 226.685" stroke="#171717" stroke-width="0.666667" stroke-miterlimit="10" />
  <path d="M44.353 227.941C44.2984 228.685 44.2431 229.427 44.1885 230.171" stroke="#171717" stroke-width="0.666667" stroke-miterlimit="10" />
  <path d="M209.43 0H211.979C211.979 5.35941 216.326 9.70489 221.685 9.70489V12.2545C216.326 12.2545 211.979 16.5999 211.979 21.9593H209.43C209.43 16.5999 205.086 12.2545 199.726 12.2545V9.70489C205.086 9.70489 209.43 5.35941 209.43 0Z" fill="#8198E9" />
  <path d="M16.0042 96.2716H18.5526C18.5526 101.631 22.8992 105.976 28.2586 105.976V108.526C22.8992 108.526 18.5526 112.871 18.5526 118.231H16.0042C16.0042 112.871 11.6599 108.526 6.29932 108.526V105.976C11.6599 105.976 16.0042 101.631 16.0042 96.2716Z" fill="#E981C6" />
  <path d="M95.4944 45.9277H96.6202C96.6202 51.2883 100.967 55.6338 106.327 55.6338V56.7608C100.967 56.7608 96.6202 61.1051 96.6202 66.4656H95.4944C95.4944 61.1051 91.1501 56.7608 85.7896 56.7608V55.6338C91.1501 55.6338 95.4944 51.2883 95.4944 45.9277Z" fill="#BB81E9" />
  <path d="M106.976 88.3226H108.102C108.102 93.6832 112.449 98.0287 117.809 98.0287V99.1557C112.449 99.1557 108.102 103.5 108.102 108.861H106.976C106.976 103.5 102.632 99.1557 97.2715 99.1557V98.0287C102.632 98.0287 106.976 93.6832 106.976 88.3226Z" fill="#E781E9" />
  <path d="M151.138 17.6647C151.138 23.0253 155.483 27.3707 160.844 27.3707C155.483 27.3707 151.138 31.7162 151.138 37.0756C151.138 31.7162 146.792 27.3707 141.433 27.3707C146.792 27.3707 151.138 23.0253 151.138 17.6647Z" fill="#9C81E9" />
  <path d="M276.555 38.8621C276.555 44.2227 280.901 48.5682 286.262 48.5682C280.901 48.5682 276.555 52.9137 276.555 58.2731C276.555 52.9137 272.21 48.5682 266.851 48.5682C272.21 48.5682 276.555 44.2227 276.555 38.8621Z" fill="#6783E6" />
</svg>
  